<?xml version="1.0" encoding="utf-8"?>
<!-- Generator: Adobe Illustrator 26.0.0, SVG Export Plug-In . SVG Version: 6.00 Build 0)  -->
<svg width="120" height="30" version="1.1" id="图层_1" xmlns="http://www.w3.org/2000/svg" xmlns:xlink="http://www.w3.org/1999/xlink" x="0px" y="0px"
	 viewBox="0 0 120 30" style="enable-background:new 0 0 120 30;" xml:space="preserve">
<style type="text/css">
	.st0{fill:url(#SVGID_1_);}
	.st1{fill:url(#SVGID_00000128452848255548996280000012984525298670399911_);}
</style>
<path d="M35.4,26.2V6.6h9.2v1.2h-7.8v7.9H44v1.2h-7.2v8H45v1.2L35.4,26.2L35.4,26.2z"/>
<path d="M54.3,13.5c-0.4-0.3-0.9-0.5-1.5-0.5c-1.1,0-2,0.6-2.8,1.7c-0.7,1.1-1.1,2.8-1.1,4.9v6.6h-1.2v-14H49v3.1l0,0
	c0.3-1.1,0.8-1.9,1.5-2.5s1.5-0.9,2.4-0.9c0.5,0,1,0.1,1.4,0.2C54.3,12.1,54.3,13.5,54.3,13.5z"/>
<path d="M55.1,25.6v-1.5c0.5,0.4,1,0.7,1.7,1c0.7,0.2,1.3,0.4,1.8,0.4c2.2,0,3.3-0.9,3.3-2.7c0-0.6-0.2-1.1-0.7-1.6
	c-0.5-0.4-1.3-0.9-2.4-1.4c-1.3-0.6-2.3-1.2-2.8-1.8c-0.5-0.6-0.8-1.4-0.8-2.3c0-1.1,0.4-2.1,1.3-2.8c0.9-0.7,1.9-1.1,3.2-1.1
	c1.2,0,2.2,0.2,3.1,0.7V14c-1-0.7-2.1-1-3.2-1c-0.9,0-1.7,0.2-2.2,0.7c-0.6,0.5-0.8,1.1-0.8,1.9c0,0.7,0.2,1.2,0.5,1.6
	s1.1,0.9,2.4,1.4c1.5,0.7,2.5,1.3,3,1.8s0.8,1.3,0.8,2.2c0,1.1-0.4,2-1.2,2.8s-2,1.1-3.5,1.1C57.2,26.5,56,26.2,55.1,25.6z"/>
<path d="M74.8,26.2v-8.4c0-1.7-0.3-2.9-0.9-3.6c-0.6-0.8-1.5-1.2-2.8-1.2c-1.2,0-2.3,0.5-3.2,1.4c-0.9,0.9-1.4,2.3-1.4,4v7.8h-1.3
	V5.5h1.3v9.2h0.1c1.1-1.9,2.7-2.9,4.8-2.9c1.5,0,2.7,0.5,3.5,1.5s1.2,2.4,1.2,4.2v8.7H74.8z"/>
<path d="M79.2,19.3c0,1.9,0.4,3.4,1.3,4.5s2.1,1.6,3.7,1.6s3.1-0.6,4.6-1.7V25c-1.4,1-3.1,1.5-4.9,1.5s-3.3-0.6-4.4-1.9
	s-1.7-3.1-1.7-5.5c0-2,0.6-3.8,1.7-5.2c1.2-1.4,2.7-2.1,4.5-2.1c1.7,0,3.1,0.6,4,1.8s1.4,2.9,1.4,5v0.6L79.2,19.3L79.2,19.3z
	 M88.3,18.1c-0.1-1.6-0.4-2.9-1.2-3.8c-0.7-0.9-1.7-1.3-3-1.3s-2.4,0.4-3.3,1.3c-0.9,0.9-1.4,2.1-1.6,3.8H88.3z"/>
<path d="M101.2,26.2v-8.1c0-3.4-1.2-5-3.6-5c-1.3,0-2.5,0.5-3.3,1.5c-0.9,1-1.3,2.2-1.3,3.7v8h-1.3v-14H93v2.5l0,0
	c1-1.9,2.6-2.9,4.8-2.9c1.5,0,2.7,0.5,3.5,1.5s1.2,2.4,1.2,4.3v8.5H101.2z"/>
<path d="M116.4,23.8c0,2.3-0.6,3.9-1.7,5s-2.9,1.6-5.4,1.6c-1.3,0-2.7-0.3-4.2-0.9v-1.1c1.5,0.7,2.9,1.1,4.2,1.1
	c3.9,0,5.8-1.8,5.8-5.3v-1.6H115c-1.1,1.6-2.8,2.5-5,2.5c-1.7,0-3.1-0.5-4.2-1.6s-1.6-2.6-1.6-4.5s0.6-3.5,1.8-4.7
	c1.2-1.2,2.7-1.8,4.6-1.8c2.1,0,3.6,0.7,4.5,2.2h0.1v-1.9h1.3v11H116.4z M115.2,17.2c0-1.1-0.4-2-1.3-2.8c-0.8-0.8-1.9-1.2-3.3-1.2
	c-1.5,0-2.8,0.5-3.7,1.5c-0.9,1-1.4,2.3-1.4,4c0,1.6,0.4,2.9,1.3,3.8s2,1.4,3.4,1.4c1.5,0,2.7-0.4,3.6-1.3c0.9-0.8,1.3-1.9,1.3-3.1
	L115.2,17.2L115.2,17.2z"/>
<radialGradient id="SVGID_1_" cx="17.5654" cy="16.5781" r="13.9784" gradientTransform="matrix(1 0 0 -1 0 32)" gradientUnits="userSpaceOnUse">
	<stop  offset="0.724" style="stop-color:#FFED54"/>
	<stop  offset="0.779" style="stop-color:#FFE649"/>
	<stop  offset="0.877" style="stop-color:#FFD22D"/>
	<stop  offset="1" style="stop-color:#FFB300"/>
</radialGradient>
<path class="st0" d="M17.6,1.4l0.9,0.9C19.1,3,20,3.1,20.7,2.7l1.1-0.6l0.6,1.2c0.4,0.8,1.2,1.2,2,1l1.3-0.2L26,5.4
	c0.1,0.8,0.8,1.5,1.6,1.6l1.3,0.2l-0.2,1.3c-0.1,0.8,0.3,1.7,1,2l1.2,0.6l-0.6,1.1c-0.4,0.8-0.3,1.7,0.4,2.3l0.9,0.9l-0.9,0.9
	c-0.6,0.6-0.8,1.5-0.4,2.3l0.6,1.1l-1.2,0.6c-0.8,0.4-1.2,1.2-1,2l0.2,1.3l-1.3,0.2c-0.8,0.1-1.5,0.8-1.6,1.6l-0.2,1.3l-1.3-0.2
	c-0.8-0.1-1.7,0.3-2,1l-0.6,1.2l-1.1-0.6c-0.8-0.4-1.7-0.3-2.3,0.4l-0.9,0.9l-0.9-0.9c-0.6-0.6-1.5-0.8-2.3-0.4l-1.1,0.6l-0.6-1.2
	c-0.4-0.8-1.2-1.2-2-1l-1.3,0.2l-0.2-1.3c-0.1-0.8-0.8-1.5-1.6-1.6l-1.3-0.2l0.2-1.3c0.1-0.8-0.3-1.7-1-2l-1.2-0.6l0.6-1.1
	c0.4-0.8,0.3-1.7-0.4-2.3l-0.9-0.9l0.9-0.9c0.6-0.6,0.8-1.5,0.4-2.3l-0.6-1.1l1.2-0.6c0.8-0.4,1.2-1.2,1-2L6.3,7.2L7.5,7
	c0.8-0.1,1.5-0.8,1.6-1.6l0.2-1.3l1.3,0.2c0.8,0.1,1.7-0.3,2-1l0.6-1.2l1.1,0.6c0.8,0.4,1.7,0.3,2.3-0.4L17.6,1.4z"/>
<linearGradient id="SVGID_00000113313007772776184280000015282634012869958301_" gradientUnits="userSpaceOnUse" x1="7.4577" y1="26.6858" x2="25.1874" y2="8.9561" gradientTransform="matrix(1 0 0 -1 0 32)">
	<stop  offset="0" style="stop-color:#FED100"/>
	<stop  offset="1" style="stop-color:#E36001"/>
</linearGradient>
<path style="fill:url(#SVGID_00000113313007772776184280000015282634012869958301_);" d="M17.6,4.6c-6,0-10.8,4.8-10.8,10.8
	s4.8,10.8,10.8,10.8s10.8-4.8,10.8-10.8S23.5,4.6,17.6,4.6z"/>
</svg>
