<svg viewBox="0 0 1024 1024" version="1.1" xmlns="http://www.w3.org/2000/svg" width="36" height="36"><path d="M513.623762 1024l-13.196258-5.336934C484.684166 1012.29331 114.917362 860.011702 114.917362 623.832835v-479.377632h252.625839L511.998404 0l144.455203 144.455203H909.079447v479.377632c0 82.967306-65.705597 174.987238-195.293921 273.516829-92.583663 70.388273-183.706561 118.083261-187.537467 120.078953l-12.624297 6.571383zM176.639803 206.177645v417.65519c0 54.710772 29.334619 140.583148 169.094802 239.009869 67.927605 47.839007 136.855113 80.535442 164.848298 92.999261C615.441102 898.839232 847.357005 747.018485 847.357005 623.832835v-417.65519h-216.464718L511.998404 87.287877 393.104522 206.177645H176.639803z" fill="white"></path><path d="M690.993486 720.531327H333.003323v-275.693573h357.990163v275.693573z m-296.267721-61.722442h234.545279v-152.24869H394.725765v152.24869z" fill="white"></path><path d="M629.271044 475.698975h-61.722442v-82.29659c0-28.363519-23.071849-51.435368-51.435368-51.435368h-8.229659c-28.363519 0-51.435368 23.071849-51.435368 51.435368v82.29659H394.725765v-82.29659c0-62.397274 50.760536-113.15781 113.15781-113.15781h8.229659c62.393159 0 113.15781 50.760536 113.15781 113.15781v82.29659z" fill="white"></path></svg>