<svg viewBox="0 0 1024 1024" version="1.1" xmlns="http://www.w3.org/2000/svg" p-id="41200" width="36" height="36"><path d="M841.959204 858.231695c-5.87783 0-11.756683 0-17.634512 0-40.567667-9.599568-73.582364-29.03611-93.087467-68.036083-2.38531-4.768574-12.760539-7.801632-19.446775-7.824144-132.70142-0.451275-265.404886-0.491184-398.104259 0.058328-7.475199 0.030699-19.09476 3.842488-21.720545 9.296672-18.635299 38.710379-52.015314 55.951945-90.735926 66.504205-5.87783 0-11.756683 0-17.634512 0-47.047197-9.988422-82.370456-33.926456-99.678536-81.029934-2.194976-5.97402-11.307454-9.771483-17.7174-13.771558-46.601038-29.079089-68.135343-71.670841-65.9506-125.780848 1.735515-42.988793 5.745824-85.883442 8.624364-128.828233 3.926398-58.572614 28.729121-104.275195 79.675087-135.818388 9.080756-5.622005 16.046352-19.022106 18.615856-30.079875 14.597361-62.813165 27.994392-125.916947 40.957544-189.09543 12.261169-59.753501 46.569316-102.647127 99.520948-130.655845 18.661905-9.870743 39.533112-15.564378 59.396369-23.165444 137.15891 0 274.318844 0 411.477754 0 3.301163 1.862404 6.388456 4.553681 9.934187 5.467487 81.467906 20.97763 132.052648 71.350549 149.20621 154.625601 12.593741 61.141094 25.405445 122.268886 40.120485 182.91675 3.001336 12.368615 12.638766 25.863883 23.154187 33.179448 37.095614 25.806578 64.547657 58.495866 70.219803 103.465766 6.952294 55.118979 10.700638 110.792587 12.72063 166.340329 1.853195 50.960292-22.305872 89.686021-65.202568 117.014245-7.126255 4.539355-16.71559 9.391839-19.253371 16.278641C922.444744 825.365377 886.994595 847.443054 841.959204 858.231695zM512.620641 62.958473c-57.765231 0-115.538648-0.59556-173.293646 0.152472-70.654706 0.914829-117.734648 40.003829-132.629789 108.990557-15.060915 69.751132-30.666226 139.404028-44.212658 209.450894-3.993936 20.651198-12.744166 32.642216-32.166382 40.618832-33.022883 13.562805-54.360715 38.766661-58.266647 74.879907-5.046911 46.65732-8.460636 93.520323-11.381132 140.370023-2.354611 37.769968 14.623967 65.64361 49.028304 78.39187 19.716926 7.305332 29.75242 18.239282 33.566255 39.360174 4.203712 23.278007 20.633802 37.7055 45.2554 38.720612 25.898675 1.068324 43.801292-12.075952 49.332223-37.000447 5.992439-27.004862 20.915209-36.079478 47.788065-35.938262 150.772881 0.792033 301.553948 0.636492 452.328875 0.135075 25.682759-0.084934 42.634731 6.187889 48.13394 34.933383 4.721502 24.68095 22.633328 38.678657 48.72336 37.88867 26.017378-0.78794 42.542634-16.094447 47.050267-40.513432 3.699226-20.042335 13.416474-30.254859 31.924883-37.263435 35.445032-13.42159 51.705254-39.477854 49.550186-77.803473-2.526525-44.919758-5.884993-89.814957-10.014004-134.616012-3.508892-38.074911-22.334525-66.999481-58.420142-81.17422-20.934652-8.223231-29.583575-21.878133-33.71668-43.058377-13.291631-68.103621-28.234867-135.884903-42.530355-203.793074C803.09533 101.699552 756.571039 63.603152 680.041574 63.020895 624.236984 62.596226 568.427278 62.938007 512.620641 62.958473zM511.001782 394.037668c-76.406669 0.00921-152.813339 0.146332-229.220008-0.048095-39.223052-0.09926-51.584505-15.021007-43.201639-53.078521 10.935997-49.652516 22.456297-99.182236 34.343962-148.616789 8.624364-35.862538 28.162213-51.266259 64.558913-51.320493 116.56911-0.172938 233.13822-0.190334 349.706307 0.014326 35.682438 0.062421 54.951158 14.233066 63.509008 48.611821 12.991805 52.191321 25.066733 104.62721 36.478564 157.187942 6.754797 31.113407-6.215518 46.919284-38.141425 47.095292C669.693974 394.323169 590.347366 394.028459 511.001782 394.037668zM720.097591 331.195851c-9.126804-40.786653-17.152539-79.687366-27.171659-118.068243-1.463318-5.605632-12.402384-12.407501-19.00164-12.455596-107.520077-0.776684-215.049363-0.771567-322.570463-0.037862-6.783449 0.046048-18.106253 6.327058-19.536825 11.756683-10.103031 38.356318-18.169698 77.248845-27.524698 118.803995C444.287801 331.195851 580.396806 331.195851 720.097591 331.195851zM234.973006 504.883467c-39.655908-0.919946-71.969645 29.312401-72.862985 68.169112-0.855478 37.219433 33.364665 71.783404 70.692568 71.404784 37.701407-0.382714 68.266326-31.218807 68.661319-69.269159C301.872204 535.733886 273.541147 505.77783 234.973006 504.883467zM793.93885 504.732019c-40.102066-0.946552-70.993418 28.900011-71.175565 68.768765-0.179077 39.361198 31.664965 71.567488 70.102124 70.897227 37.69629-0.656958 67.947056-31.576962 68.304188-69.814577C861.531845 535.875102 832.43229 505.640708 793.93885 504.732019z" fill="white"></path></svg>