<svg t="1736064253965" class="icon" viewBox="0 0 1024 1024" version="1.1" xmlns="http://www.w3.org/2000/svg" p-id="64555" width="200" height="200"><path d="M350.57 1005.38c-99.28 0-180-80.78-180-180.06s80.77-180.05 180-180.05h322.86c99.28 0 180.05 80.77 180.05 180.05s-80.77 180.06-180.05 180.06z" fill="#505050" p-id="64556"></path><path d="M673.43 663.89c89 0 161.43 72.42 161.43 161.43s-72.42 161.43-161.43 161.43H350.57c-89 0-161.43-72.42-161.43-161.43s72.42-161.43 161.43-161.43h322.86m0-37.25H350.57c-109.73 0-198.68 89-198.68 198.68 0 109.73 89 198.68 198.68 198.68h322.86c109.73 0 198.68-89 198.68-198.68 0-109.73-89-198.68-198.68-198.68z" fill="#B2B2B1" p-id="64557"></path><path d="M360.53 943.29a118 118 0 1 1 118-118 118.1 118.1 0 0 1-118 118z m0-173.85a55.88 55.88 0 1 0 55.88 55.88 55.94 55.94 0 0 0-55.88-55.88zM663.47 943.29a118 118 0 1 1 118-118 118.1 118.1 0 0 1-118 118z m0-173.85a55.88 55.88 0 1 0 55.88 55.88 55.94 55.94 0 0 0-55.88-55.88z" fill="#B2B2B1" p-id="64558"></path><path d="M512 562.13c-6.58 0-13.24-0.21-19.92-0.62-154.64-9.63-279.22-133.44-289.76-288a307.77 307.77 0 0 1 26.45-149c23.88-53 77.15-87.27 135.72-87.27h295c58.14 0 111.09 33.54 134.88 85.44a310.59 310.59 0 0 1-62.9 348.52A308.33 308.33 0 0 1 512 562.13z" fill="#505050" p-id="64559"></path><path d="M659.53 74.51c43.62 0 83.28 25 101 63.71a270.41 270.41 0 0 1 24.64 113.47c0 150.63-122.55 273.18-273.19 273.18-5.83 0-11.76-0.18-17.62-0.54-136-8.47-245.63-117.39-254.91-253.35a271.16 271.16 0 0 1 23.25-131.15c17.88-39.68 57.82-65.32 101.76-65.32h295m0-74.51h-295C291.4 0 224.81 42.6 194.79 109.23a347.1 347.1 0 0 0-29.65 166.82C176.9 448.32 317.43 588 489.76 598.69q11.19 0.69 22.24 0.69c192 0 347.69-155.67 347.69-347.69a346 346 0 0 0-31.41-144.51C798.17 41.49 731.79 0 659.53 0z" fill="#B2B2B1" p-id="64560"></path><path d="M332.85 331.26a68.3 68.3 0 1 1 68.3-68.26 68.38 68.38 0 0 1-68.3 68.26z m0-99.34a31 31 0 1 0 31 31.05 31.07 31.07 0 0 0-31-31.05zM512 331.26A68.3 68.3 0 1 1 580.3 263a68.38 68.38 0 0 1-68.3 68.26z m0-99.34A31 31 0 1 0 543 263a31.07 31.07 0 0 0-31-31.08zM424.12 193.7a49.67 49.67 0 1 1 49.67-49.7 49.72 49.72 0 0 1-49.67 49.7z m0-74.51A24.84 24.84 0 1 0 449 144a24.87 24.87 0 0 0-24.88-24.81zM599.88 193.7a49.67 49.67 0 1 1 49.67-49.7 49.72 49.72 0 0 1-49.67 49.7z m0-74.51A24.84 24.84 0 1 0 624.72 144a24.86 24.86 0 0 0-24.84-24.81zM691.15 331.26a68.3 68.3 0 1 1 68.3-68.26 68.37 68.37 0 0 1-68.3 68.26z m0-99.34A31 31 0 1 0 722.2 263a31.07 31.07 0 0 0-31.05-31.08zM422.43 483.2a68.3 68.3 0 1 1 68.29-68.3 68.38 68.38 0 0 1-68.29 68.3z m0-99.34a31 31 0 1 0 31 31 31.08 31.08 0 0 0-31-31zM601.57 483.2a68.3 68.3 0 1 1 68.3-68.3 68.38 68.38 0 0 1-68.3 68.3z m0-99.34a31 31 0 1 0 31 31 31.08 31.08 0 0 0-31-31z" fill="#B2B2B1" p-id="64561"></path></svg>