<svg t="1736064721611" class="icon" viewBox="0 0 1024 1024" version="1.1" xmlns="http://www.w3.org/2000/svg" p-id="91024" width="200" height="200"><path d="M896 0H128C57.6 0 0 57.6 0 128v768c0 70.4 57.6 128 128 128h768c70.4 0 128-57.6 128-128V128c0-70.4-57.6-128-128-128z" fill="#DB5132" p-id="91025"></path><path d="M163.2 332.8V262.4C163.2 224 195.2 192 233.6 192h41.6v-12.8c0-25.6 16-41.6 41.6-41.6s41.6 16 41.6 41.6V192h41.6c38.4 0 70.4 32 70.4 70.4v70.4H163.2zM163.2 358.4h304v83.2H163.2zM163.2 470.4h304v83.2H163.2zM163.2 582.4h304v83.2H163.2zM275.2 844.8V832H233.6c-38.4 0-70.4-32-70.4-70.4v-70.4h304v70.4c0 38.4-32 70.4-70.4 70.4h-41.6v12.8c0 25.6-16 41.6-41.6 41.6-22.4 0-38.4-19.2-38.4-41.6z" fill="#FFFFFF" p-id="91026"></path><path d="M556.8 332.8V262.4c0-38.4 32-70.4 70.4-70.4h41.6v-12.8c0-25.6 16-41.6 41.6-41.6s41.6 16 41.6 41.6V192h41.6C832 192 864 224 864 262.4v70.4h-307.2zM556.8 358.4h304v83.2h-304zM556.8 470.4h304v83.2h-304zM556.8 582.4h304v83.2h-304zM665.6 844.8V832h-41.6c-38.4 0-70.4-32-70.4-70.4v-70.4h304v70.4c0 38.4-32 70.4-70.4 70.4h-41.6v12.8c0 25.6-16 41.6-41.6 41.6-22.4 0-38.4-19.2-38.4-41.6z" fill="#FFFFFF" p-id="91027"></path></svg>