<svg t="1736064954128" class="icon" viewBox="0 0 1024 1024" version="1.1" xmlns="http://www.w3.org/2000/svg" p-id="114383" width="200" height="200"><path d="M486.00306043 7.08012044H31.03852082A15.78753632 15.78753632 0 0 0 15.2509845 22.86765674v976.56868992a15.78753632 15.78753632 0 0 0 15.78753632 15.78753631h454.96453961a15.78753632 15.78753632 0 0 0 15.78753631-15.78753631V22.86765674A15.78753632 15.78753632 0 0 0 486.00306043 7.08012044z m0.47064622 980.95210523c0 8.50505171-6.65588534 15.39765116-14.8629525 15.39765117H43.22519537c-8.20985297 0-14.86573834-6.89260074-14.86573834-15.39765117V35.62244848c0-8.50505171 6.65588534-15.39765116 14.86573834-15.39765246H471.61075415c8.20706843 0 14.86295248 6.89538529 14.8629525 15.39765246v952.40977719zM1007.28973299 8.23306469H552.32519339a15.78753632 15.78753632 0 0 0-15.78753632 15.78753502V1000.58929091a15.78753632 15.78753632 0 0 0 15.78753632 15.78753502h454.9645396a15.78753632 15.78753632 0 0 0 15.78753631-15.78753502V24.02059971a15.78753632 15.78753632 0 0 0-15.78753631-15.78753502z m0.47064622 980.95210525c0 8.50505171-6.65588534 15.39765116-14.86295249 15.39765116H564.51186794c-8.20985297 0-14.86573834-6.89260074-14.86573834-15.39765116V36.77539275c0-8.50505171 6.65588534-15.39765116 14.86573834-15.39765246h428.38555878c8.20706843 0 14.86295248 6.89538529 14.86295249 15.39765246v952.40977719z" fill="#2c2c2c" p-id="114384"></path><path d="M458.08454837 29.29518036H51.83328715c-7.78376477 0-14.09710882 6.76728036-14.09710881 15.11359323v934.83712698c0 8.34909741 6.31334405 15.11359322 14.09710881 15.11359321h406.25126122c7.78376477 0 14.09710882-6.76728036 14.09710752-15.11359321V44.40877359c-0.00278455-8.34631285-6.31334405-15.11359322-14.09710752-15.11359323zM170.51690413 95.33325409h168.89238221c1.3200368 0 2.3866496 3.26110501 2.3866496 7.28527044 0 4.02137958-1.06939735 7.2824846-2.3866496 7.2824846H170.51690413c-1.3200368 0-2.3866496-3.26110501-2.3866496-7.2824846 0-4.02416414 1.0666128-7.28526915 2.3866496-7.28527044z m93.93709262 645.15853873v105.01538091a9.10937196 9.10937196 0 0 1-9.08987751 9.11494236 9.10658741 9.10658741 0 0 1-9.08709296-9.11494236v-105.01538091a9.10658741 9.10658741 0 0 1 9.08709296-9.10937325 9.10658741 9.10658741 0 0 1 9.08987751 9.10937325z m-9.07595345 192.88977022c-51.9409662 0.0055704-94.18773335-42.36373258-94.18773207-94.4383728 0-32.04014845 16.00197269-61.63516395 42.8176689-79.16325616l0.19494192-0.14202897a10.47118221 10.47118221 0 0 1 1.07496776-0.68786844l0.29519744-0.14759937c1.25319978-0.62938509 2.63450448-0.95243194 4.03251909-0.9496461a9.11215651 9.11215651 0 0 1 9.0954479 9.11215652c0 3.36414638-1.92992873 6.48879153-5.14647444 8.3323875l-0.11139632 0.06683829-0.11139501 0.07240613a76.16671593 76.16671593 0 0 0-33.97286173 63.5066106c0 42.02676038 34.09818209 76.21127393 76.00797706 76.21127392 41.90701041 0 75.9996221-34.18451355 75.9996221-76.21127392a76.18342453 76.18342453 0 0 0-33.97007588-63.5066106l-0.19772778-0.11974997c-2.50361501-1.4759911-5.18546334-4.43911284-5.18546334-8.35745236a9.10658741 9.10658741 0 0 1 9.08987751-9.10937196 8.94506398 8.94506398 0 0 1 5.23002264 1.6625794l0.13088947 0.08354691c26.98000547 17.51416686 43.08223369 47.17323611 43.08223368 79.34427404 0.00278455 52.07742477-42.24676716 94.44115734-94.1682389 94.44115734zM979.36843638 30.44812463H573.11717516c-7.78376477 0-14.09710882 6.76728036-14.09710881 15.11359192V980.39884482c0 8.34909741 6.31334405 15.11359322 14.09710881 15.11359323h406.25126122c7.78376477 0 14.09710882-6.76728036 14.09710752-15.11359323V45.56171655c0-8.34631285-6.31334405-15.11359322-14.09710752-15.11359192zM691.80357669 96.48619835h168.89238221c1.3200368 0 2.3866496 3.26110501 2.3866496 7.28526915 0 4.02137958-1.06939735 7.2824846-2.3866496 7.2824859h-168.89238221c-1.3200368 0-2.3866496-3.26110501-2.3866496-7.2824859-0.00278455-4.02416414 1.0666128-7.28526915 2.3866496-7.28526915z m93.93709262 645.15853745v105.01538219a9.10937196 9.10937196 0 0 1-9.0898775 9.11494107 9.10658741 9.10658741 0 0 1-9.08709296-9.11494107v-105.01538219a9.10658741 9.10658741 0 0 1 9.08709296-9.10937197 9.10658741 9.10658741 0 0 1 9.0898775 9.10937197z m-9.07873799 192.88977151c-51.9409662 0.0055704-94.18773335-42.36373258-94.18773208-94.4383728 0-32.04014845 16.00197269-61.63516395 42.8176689-79.16325616l0.19494193-0.14203025a10.47118221 10.47118221 0 0 1 1.07496775-0.68786716l0.29519744-0.14759937c1.25319978-0.62938509 2.63450448-0.95243194 4.03251909-0.94964739a9.11215651 9.11215651 0 0 1 9.0954479 9.1121578c0 3.36414638-1.92992873 6.48879153-5.14647444 8.3323875l-0.11139631 0.066837-0.11139502 0.07240742a76.16671593 76.16671593 0 0 0-33.97286172 63.50661061c0 42.02676038 34.09818209 76.21127393 76.00797705 76.21127392 41.90701041 0 75.9996221-34.18451355 75.9996221-76.21127392a76.18342453 76.18342453 0 0 0-33.97007587-63.50661061l-0.19772779-0.11974996c-2.50361501-1.4759911-5.18546334-4.43911284-5.18546334-8.35745236a9.10658741 9.10658741 0 0 1 9.08987751-9.10937196 8.94506398 8.94506398 0 0 1 5.23002135 1.66257939l0.13089077 0.08354561c26.98000547 17.51416686 43.08223369 47.17323611 43.08223368 79.34427533 0.0055704 52.07742477-42.24398261 94.44115734-94.1682389 94.44115736z" fill="#2c2c2c" p-id="114385"></path></svg>