<svg t="1736064461214" class="icon" viewBox="0 0 1024 1024" version="1.1" xmlns="http://www.w3.org/2000/svg" p-id="69287" width="200" height="200"><path d="M512 512m-512 0a512 512 0 1 0 1024 0 512 512 0 1 0-1024 0Z" fill="#606670" p-id="69288"></path><path d="M816.911583 521.167026c0 170.469287-138.68967 309.158957-309.158957 309.158957-170.473739 0-309.158957-138.68967-309.158956-309.158957H90.178783c0 230.248626 187.320765 417.573843 417.573843 417.573844 230.248626 0 417.573843-187.325217 417.573844-417.573844h-108.414887z" fill="#3F464A" opacity=".48" p-id="69289"></path><path d="M98.517704 434.964035l106.869983 18.8416a309.078817 309.078817 0 0 1 15.907617-51.689739L126.691061 347.492174a416.251548 416.251548 0 0 0-28.173357 87.471861z" fill="#5E9673" p-id="69290"></path><path d="M537.9072 208.953878a308.949704 308.949704 0 0 1 57.027896 10.622887l37.180104-102.146226A417.195409 417.195409 0 0 0 537.911652 100.173913v108.779965z" fill="#FFFF00" p-id="69291"></path><path d="M424.514783 219.572313a309.150052 309.150052 0 0 1 57.018991-10.618435V100.169461a417.150887 417.150887 0 0 0-94.199096 17.252174l37.180105 102.150678z" fill="#E6FF9F" p-id="69292"></path><path d="M153.23047 297.721322l93.985391 54.263095a313.344 313.344 0 0 1 34.094748-44.250156L211.224487 224.207026a422.555826 422.555826 0 0 0-57.994017 73.514296z" fill="#7DC999" p-id="69293"></path><path d="M253.431096 186.804313l69.725495 83.095374a311.447374 311.447374 0 0 1 48.760209-30.007652l-37.264696-102.377739a420.009183 420.009183 0 0 0-81.221008 49.290017z" fill="#97F2B8" p-id="69294"></path><path d="M808.216487 224.207026L738.134817 307.734261a314.038539 314.038539 0 0 1 34.0992 44.250156l93.976487-54.263095a422.302052 422.302052 0 0 0-57.994017-73.514296z" fill="#FF7F00" p-id="69295"></path><path d="M684.78887 137.514296l-37.260244 102.377739a311.598748 311.598748 0 0 1 48.760209 30.012104l69.729948-83.099826a420.51673 420.51673 0 0 0-81.229913-49.290017z" fill="#FFBF00" p-id="69296"></path><path d="M892.754365 347.496626l-94.608695 54.623722a307.841113 307.841113 0 0 1 15.907617 51.689739l106.874435-18.8416a416.509774 416.509774 0 0 0-28.173357-87.471861z" fill="#FF6363" p-id="69297"></path><path d="M509.983165 523.344139m-86.879722 0a86.879722 86.879722 0 1 0 173.759444 0 86.879722 86.879722 0 1 0-173.759444 0Z" fill="#FFFFFF" p-id="69298"></path></svg>