<svg t="1736065339090" class="icon" viewBox="0 0 1024 1024" version="1.1" xmlns="http://www.w3.org/2000/svg" p-id="126410" width="200" height="200"><path d="M985.6 294.4a38.4 38.4 0 0 1 38.4 38.4v358.4a38.4 38.4 0 0 1-38.4 38.4H38.4a38.4 38.4 0 0 1-38.4-38.4V332.8a38.4 38.4 0 0 1 38.4-38.4h947.2z m-25.6 38.4H64a25.6 25.6 0 0 0-25.6 25.6v307.2a25.6 25.6 0 0 0 25.6 25.6h896a25.6 25.6 0 0 0 25.6-25.6V358.4a25.6 25.6 0 0 0-25.6-25.6z m0 12.8l1.4976 0.0896A12.8 12.8 0 0 1 972.8 358.4v307.2l-0.0896 1.4976A12.8 12.8 0 0 1 960 678.4H64l-1.4976-0.0896A12.8 12.8 0 0 1 51.2 665.6V358.4l0.0896-1.4976A12.8 12.8 0 0 1 64 345.6h896z m-23.552 73.7024H87.552V556.8h91.0848v-30.8736h76.416V556.8h57.088v-30.8736h95.168V556.8h57.1136v-30.8736h95.1552V556.8h57.1008v-30.8736h95.168V556.8h57.1008v-30.8736h73.2288V556.8h94.272V419.3024z m-25.6128 25.6V531.2h-43.0592v-30.8736H153.0368V531.2H113.152v-86.2976h797.6832z m-655.7824-75.2512h-57.1008v38.1952h57.088v-38.1952z m152.2688 0H350.208v38.1952h57.088v-38.1952z m152.256 0h-57.088v38.1952h57.088v-38.1952z m152.2688 0h-57.088v38.1952h57.088v-38.1952z m152.2688 0h-57.088v38.1952h57.088v-38.1952z" fill="#000000" p-id="126411"></path></svg>